<svg width="51" height="72" viewBox="0 0 51 72" fill="none" xmlns="http://www.w3.org/2000/svg">
<path d="M12.6652 63.3077V70.1346C12.6652 70.8883 13.2707 71.5 14.0169 71.5H19.4234C19.7819 71.5 20.1257 71.3561 20.3792 71.1001C20.6327 70.844 20.7751 70.4967 20.7751 70.1346V63.3077H23.4784V70.1346C23.4784 70.8883 24.0839 71.5 24.83 71.5H30.2366C30.5951 71.5 30.9389 71.3561 31.1923 71.1001C31.4458 70.844 31.5882 70.4967 31.5882 70.1346V63.3077H32.0424C42.8123 63.3077 50.5112 57.6659 50.5112 47.9062C50.5112 39.7029 45.0668 35.219 38.6925 34.58V34.0994C43.9368 32.7777 47.7917 28.7798 47.7917 22.1386C47.7917 13.7715 41.5742 8.69231 32.0856 8.69231H31.5882V1.86538C31.5882 1.50326 31.4458 1.15597 31.1923 0.899912C30.9389 0.643853 30.5951 0.5 30.2366 0.5H24.83C24.4715 0.5 24.1277 0.643853 23.8742 0.899912C23.6208 1.15597 23.4784 1.50326 23.4784 1.86538V8.69231H20.3804V1.86538C20.3804 1.50326 20.238 1.15597 19.9845 0.899912C19.731 0.643853 19.3872 0.5 19.0287 0.5H14.0169C13.6584 0.5 13.3146 0.643853 13.0611 0.899912C12.8076 1.15597 12.6652 1.50326 12.6652 1.86538V8.69231L1.86287 8.75238C1.5044 8.75238 1.1606 8.89624 0.907117 9.1523C0.653634 9.40836 0.51123 9.75565 0.51123 10.1178V15.5192C0.51123 16.2675 1.10595 16.8846 1.85206 16.8846L5.93402 16.8573C7.00477 16.8645 8.02922 17.2993 8.78383 18.0667C9.53844 18.8341 9.96195 19.8718 9.96192 20.9535V51.0192C9.96192 52.1056 9.53471 53.1475 8.77426 53.9156C8.01381 54.6838 6.98243 55.1154 5.90699 55.1154L1.86287 55.1755C1.5044 55.1755 1.1606 55.3193 0.907117 55.5754C0.653634 55.8314 0.51123 56.1787 0.51123 56.5408V62.0024C0.51123 62.7561 1.11677 63.3678 1.86287 63.3678L12.6652 63.3077ZM20.3804 16.8136H29.6743C34.5726 16.8136 37.4489 19.5335 37.4489 23.9792C37.4489 28.7362 34.3402 31.4178 27.3008 31.4178H20.3804V16.8136ZM20.3804 38.9383H30.3285C36.4758 38.9383 39.8224 42.106 39.8224 47.2617C39.8224 52.4665 36.4379 55.1809 28.155 55.1809H20.3804V38.9438V38.9383Z" fill="#00031A"/>
</svg>
