<svg width="16" height="18" viewBox="0 0 16 18" fill="none" xmlns="http://www.w3.org/2000/svg">
<path d="M3.63336 17.4375C3.13336 17.4375 2.70836 17.2625 2.35836 16.9125C2.00836 16.5625 1.83336 16.1375 1.83336 15.6375V2.9375H1.58336C1.36669 2.9375 1.18769 2.8665 1.04636 2.7245C0.904359 2.58317 0.833359 2.40417 0.833359 2.1875C0.833359 1.97083 0.904359 1.79183 1.04636 1.6505C1.18769 1.5085 1.36669 1.4375 1.58336 1.4375H5.33336C5.33336 1.1875 5.42069 0.979167 5.59536 0.8125C5.77069 0.645833 5.98336 0.5625 6.23336 0.5625H10.4334C10.6834 0.5625 10.896 0.645833 11.0714 0.8125C11.246 0.979167 11.3334 1.1875 11.3334 1.4375H15.0834C15.3 1.4375 15.4794 1.5085 15.6214 1.6505C15.7627 1.79183 15.8334 1.97083 15.8334 2.1875C15.8334 2.40417 15.7627 2.58317 15.6214 2.7245C15.4794 2.8665 15.3 2.9375 15.0834 2.9375H14.8334V15.6375C14.8334 16.1375 14.6584 16.5625 14.3084 16.9125C13.9584 17.2625 13.5334 17.4375 13.0334 17.4375H3.63336ZM3.33336 2.9375V15.6375C3.33336 15.7208 3.36269 15.7918 3.42136 15.8505C3.47936 15.9085 3.55003 15.9375 3.63336 15.9375H13.0334C13.1167 15.9375 13.1877 15.9085 13.2464 15.8505C13.3044 15.7918 13.3334 15.7208 13.3334 15.6375V2.9375H3.33336ZM5.73336 13.1875C5.73336 13.4042 5.80436 13.5835 5.94636 13.7255C6.08769 13.8668 6.26669 13.9375 6.48336 13.9375C6.70003 13.9375 6.87936 13.8668 7.02136 13.7255C7.16269 13.5835 7.23336 13.4042 7.23336 13.1875V5.6875C7.23336 5.47083 7.16269 5.2915 7.02136 5.1495C6.87936 5.00817 6.70003 4.9375 6.48336 4.9375C6.26669 4.9375 6.08769 5.00817 5.94636 5.1495C5.80436 5.2915 5.73336 5.47083 5.73336 5.6875V13.1875ZM9.43336 13.1875C9.43336 13.4042 9.50403 13.5835 9.64536 13.7255C9.78736 13.8668 9.96669 13.9375 10.1834 13.9375C10.4 13.9375 10.5794 13.8668 10.7214 13.7255C10.8627 13.5835 10.9334 13.4042 10.9334 13.1875V5.6875C10.9334 5.47083 10.8627 5.2915 10.7214 5.1495C10.5794 5.00817 10.4 4.9375 10.1834 4.9375C9.96669 4.9375 9.78736 5.00817 9.64536 5.1495C9.50403 5.2915 9.43336 5.47083 9.43336 5.6875V13.1875ZM3.33336 15.6375C3.33336 15.7208 3.36269 15.7918 3.42136 15.8505C3.47936 15.9085 3.55003 15.9375 3.63336 15.9375H3.33336C3.33336 15.9375 3.33336 15.9085 3.33336 15.8505C3.33336 15.7918 3.33336 15.7208 3.33336 15.6375Z" fill="#989898"/>
</svg>
