<svg width="168" height="168" viewBox="0 0 168 168" fill="none" xmlns="http://www.w3.org/2000/svg">
<circle cx="89" cy="84" r="62" fill="#D9D9D9"/>
<path d="M79.5 117C98.0015 117 113 102.002 113 83.5C113 64.9985 98.0015 50 79.5 50C60.9985 50 46 64.9985 46 83.5C46 102.002 60.9985 117 79.5 117Z" fill="#E0E0E0" stroke="#00031A" stroke-width="2.5"/>
<path fill-rule="evenodd" clip-rule="evenodd" d="M74.1321 109.494C75.8908 109.819 77.6801 109.987 79.5 110C94.1355 110 106 98.1355 106 83.5C106 68.8645 94.1355 57 79.5 57C75.7404 57 72.1636 57.7829 68.9238 59.1946C63.2938 61.6479 58.6816 65.9999 55.896 71.4419C54.0445 75.0589 53 79.1575 53 83.5C53 87.44 53.8599 91.1792 55.4021 94.5401C56.5032 96.9396 57.9521 99.1463 59.6843 101.096" fill="white"/>
<path d="M74.1321 109.494C75.8908 109.819 77.6801 109.987 79.5 110C94.1355 110 106 98.1355 106 83.5C106 68.8645 94.1355 57 79.5 57C75.7404 57 72.1636 57.7829 68.9238 59.1946C63.2938 61.6479 58.6816 65.9999 55.896 71.4419C54.0445 75.0589 53 79.1575 53 83.5C53 87.44 53.8599 91.1792 55.4021 94.5401C56.5032 96.9396 57.9521 99.1463 59.6843 101.096" stroke="#00031A" stroke-width="2.5" stroke-linecap="round"/>
<path d="M62.7969 104.075C64.945 105.821 67.3718 107.237 70.0003 108.247" stroke="#00031A" stroke-width="2.5" stroke-linecap="round"/>
<path d="M107 110L113 116" stroke="#00031A" stroke-width="2.5"/>
<path fill-rule="evenodd" clip-rule="evenodd" d="M112.031 115.03C110.138 116.923 110.138 119.991 112.031 121.884L123.116 132.969C125.009 134.862 128.078 134.862 129.97 132.969C131.863 131.077 131.863 128.008 129.97 126.115L118.885 115.03C116.992 113.137 113.924 113.137 112.031 115.03Z" fill="#C4C4C4" stroke="#00031A" stroke-width="2.5"/>
<path d="M117 117L128 128" stroke="white" stroke-width="2.5" stroke-linecap="round"/>
<path fill-rule="evenodd" clip-rule="evenodd" d="M73.0005 72.0005C73.0005 83.5985 82.4025 93.0005 94.0005 93.0005C96.2789 93.0005 98.4725 92.6377 100.527 91.9667C97.1737 100.288 89.023 106.161 79.5005 106.161C66.9854 106.161 56.8398 96.0157 56.8398 83.5005C56.8398 72.1601 65.1702 62.7653 76.0455 61.1016C74.1135 64.2798 73.0005 68.0102 73.0005 72.0005Z" fill="#C4C4C4"/>
<path d="M80 65C78.7266 65 77.4825 65.1253 76.2793 65.3642M72.6447 66.4761C65.8039 69.3508 61 76.1144 61 84" stroke="#00031A" stroke-width="2.5" stroke-linecap="round"/>
<path d="M133.176 83.7773H125M139.5 76H122.324H139.5ZM146.5 76H144.279H146.5Z" stroke="#00031A" stroke-width="2.5" stroke-linecap="round" stroke-linejoin="round"/>
<path d="M43.1763 105.777H35.0005M38.5005 97H21.3247H38.5005ZM15.5005 97H11.2793H15.5005Z" stroke="#00031A" stroke-width="2.5" stroke-linecap="round" stroke-linejoin="round"/>
</svg>
