<svg width="18" height="17" viewBox="0 0 18 17" fill="none" xmlns="http://www.w3.org/2000/svg">
<path d="M7.83947 16.065L6.48947 14.784C4.8 13.221 3.29621 11.6861 1.97811 10.1793C0.659368 8.67305 0 7.0579 0 5.33384C0 3.96425 0.454105 2.81605 1.36232 1.88924C2.26989 0.963081 3.39474 0.5 4.73684 0.5C5.49474 0.5 6.24884 0.681108 6.99916 1.04332C7.74884 1.40618 8.41579 1.99043 9 2.79607C9.58421 1.99043 10.2515 1.40618 11.0018 1.04332C11.7515 0.681108 12.5053 0.5 13.2632 0.5C14.6053 0.5 15.7301 0.963081 16.6377 1.88924C17.5459 2.81605 18 3.96425 18 5.33384C18 7.07402 17.3289 8.70528 15.9868 10.2276C14.6447 11.7506 13.1447 13.2774 11.4868 14.8082L10.1605 16.0408C9.82895 16.3469 9.44211 16.5 9 16.5C8.55789 16.5 8.17105 16.355 7.83947 16.065Z" fill="#1C1B1F"/>
</svg>
