<svg width="24" height="24" viewBox="0 0 24 24" fill="none" xmlns="http://www.w3.org/2000/svg">
<path d="M10.775 19.8124L9.35 18.4874C7.56667 16.8707 5.97933 15.2831 4.588 13.7244C3.196 12.1664 2.5 10.4957 2.5 8.7124C2.5 7.29574 2.97933 6.10807 3.938 5.1494C4.896 4.1914 6.08333 3.7124 7.5 3.7124C8.3 3.7124 9.096 3.89974 9.888 4.2744C10.6793 4.64974 11.3833 5.25407 12 6.0874C12.6167 5.25407 13.321 4.64974 14.113 4.2744C14.9043 3.89974 15.7 3.7124 16.5 3.7124C17.9167 3.7124 19.104 4.1914 20.062 5.1494C21.0207 6.10807 21.5 7.29574 21.5 8.7124C21.5 10.5124 20.7917 12.1997 19.375 13.7744C17.9583 15.3497 16.375 16.9291 14.625 18.5124L13.225 19.7874C12.875 20.1207 12.4667 20.2874 12 20.2874C11.5333 20.2874 11.125 20.1291 10.775 19.8124ZM11.275 7.6124C10.7417 6.77907 10.175 6.17074 9.575 5.7874C8.975 5.40407 8.28333 5.2124 7.5 5.2124C6.5 5.2124 5.66667 5.54574 5 6.2124C4.33333 6.87907 4 7.7124 4 8.7124C4 9.5124 4.25833 10.3497 4.775 11.2244C5.29167 12.0997 5.94167 12.9707 6.725 13.8374C7.50833 14.7041 8.354 15.5497 9.262 16.3744C10.1707 17.1997 11.0167 17.9707 11.8 18.6874C11.85 18.7374 11.9167 18.7624 12 18.7624C12.0833 18.7624 12.15 18.7374 12.2 18.6874C12.9833 17.9707 13.8293 17.1997 14.738 16.3744C15.646 15.5497 16.4917 14.7041 17.275 13.8374C18.0583 12.9707 18.7083 12.0997 19.225 11.2244C19.7417 10.3497 20 9.5124 20 8.7124C20 7.7124 19.6667 6.87907 19 6.2124C18.3333 5.54574 17.5 5.2124 16.5 5.2124C15.7167 5.2124 15.025 5.40407 14.425 5.7874C13.825 6.17074 13.2583 6.77907 12.725 7.6124C12.6417 7.72907 12.5333 7.82074 12.4 7.8874C12.2667 7.95407 12.1333 7.9874 12 7.9874C11.8667 7.9874 11.7333 7.95407 11.6 7.8874C11.4667 7.82074 11.3583 7.72907 11.275 7.6124Z" fill="#1C1B1F"/>
</svg>
