<svg width="61" height="72" viewBox="0 0 61 72" fill="none" xmlns="http://www.w3.org/2000/svg">
<path d="M53.7171 16.9754C54.2465 12.2231 53.3068 8.84642 50.6201 5.76698C47.3996 2.07965 41.5938 0.5 34.1557 0.5H12.5737C11.839 0.50032 11.1285 0.764078 10.5698 1.24391C10.0111 1.72373 9.64072 2.38819 9.52526 3.11796L0.534252 60.4424C0.492132 60.7087 0.507942 60.9809 0.580592 61.2404C0.653242 61.4999 0.781002 61.7405 0.955056 61.9455C1.12911 62.1505 1.34532 62.3151 1.58875 62.4279C1.83219 62.5407 2.09707 62.5991 2.3651 62.5989H14.5237L13.6325 68.2786C13.5701 68.6762 13.594 69.0828 13.7027 69.4703C13.8115 69.8577 14.0024 70.2169 14.2623 70.5231C14.5223 70.8292 14.8451 71.0751 15.2085 71.2437C15.572 71.4124 15.9675 71.4998 16.3678 71.5H27.5999C29.4925 71.5 31.0984 70.1245 31.4028 68.2564L31.5131 67.6796L33.6307 54.1771L33.7631 53.4494L33.7675 53.4183C33.8244 53.0503 34.0106 52.715 34.2923 52.4732C34.574 52.2315 34.9324 52.0992 35.3027 52.1005H36.9792C42.5644 52.1005 47.6775 50.9645 51.7363 48.0626C53.4083 46.8645 54.8774 45.3869 56.1171 43.6032C58.1758 40.7205 59.508 37.3782 59.9993 33.8635C61.067 28.3347 60.5729 23.4094 57.4847 19.8685C56.5328 18.8 55.3969 17.9132 54.1318 17.2505L53.7171 16.9798V16.9754ZM20.5545 39.6363C20.9916 39.4066 21.4774 39.2864 21.9706 39.2858H28.3058C40.7467 39.2858 50.4833 34.2096 53.3289 19.5135L53.3421 19.4425C54.2994 19.9927 55.1068 20.6406 55.7597 21.386C58.1685 24.1504 58.7552 28.1971 57.745 33.4109C56.545 39.6097 53.9245 43.6476 50.4083 46.1635C46.8702 48.6927 42.282 49.7798 36.9836 49.7798H35.3071C34.3911 49.7786 33.5047 50.1058 32.8069 50.7027C32.1091 51.2996 31.6457 52.1271 31.4999 53.0367L31.3675 53.7644L29.2499 67.2669L29.144 67.8437L29.1396 67.8615C29.0808 68.2283 28.894 68.562 28.6126 68.8027C28.3312 69.0435 27.9737 69.1754 27.6043 69.1749H16.3722C16.3043 69.1751 16.2372 69.1605 16.1755 69.132C16.1138 69.1035 16.059 69.0619 16.0149 69.0099C15.9708 68.958 15.9385 68.897 15.9202 68.8313C15.9019 68.7655 15.8981 68.6965 15.909 68.6291L16.8266 62.772L20.5545 39.6363Z" fill="#00031A"/>
</svg>
