<svg width="20" height="20" viewBox="0 0 20 20" fill="none" xmlns="http://www.w3.org/2000/svg">
<path d="M6.00391 20C5.45391 20 4.98324 19.8043 4.59191 19.413C4.19991 19.021 4.00391 18.55 4.00391 18C4.00391 17.45 4.19991 16.979 4.59191 16.587C4.98324 16.1957 5.45391 16 6.00391 16C6.55391 16 7.02457 16.1957 7.41591 16.587C7.80791 16.979 8.00391 17.45 8.00391 18C8.00391 18.55 7.80791 19.021 7.41591 19.413C7.02457 19.8043 6.55391 20 6.00391 20ZM16.0039 20C15.4539 20 14.9832 19.8043 14.5919 19.413C14.1999 19.021 14.0039 18.55 14.0039 18C14.0039 17.45 14.1999 16.979 14.5919 16.587C14.9832 16.1957 15.4539 16 16.0039 16C16.5539 16 17.0249 16.1957 17.4169 16.587C17.8082 16.979 18.0039 17.45 18.0039 18C18.0039 18.55 17.8082 19.021 17.4169 19.413C17.0249 19.8043 16.5539 20 16.0039 20ZM6.00391 15C5.25391 15 4.68724 14.6707 4.30391 14.012C3.92057 13.354 3.90391 12.7 4.25391 12.05L5.60391 9.6L2.00391 2H0.978906C0.695573 2 0.46224 1.904 0.278906 1.712C0.0955729 1.52067 0.00390625 1.28333 0.00390625 1C0.00390625 0.716667 0.0999062 0.479 0.291906 0.287C0.48324 0.0956666 0.720573 0 1.00391 0H2.62891C2.81224 0 2.98724 0.0500001 3.15391 0.15C3.32057 0.25 3.44557 0.391667 3.52891 0.575L4.20391 2H18.9539C19.4039 2 19.7122 2.16667 19.8789 2.5C20.0456 2.83333 20.0372 3.18333 19.8539 3.55L16.3039 9.95C16.1206 10.2833 15.8789 10.5417 15.5789 10.725C15.2789 10.9083 14.9372 11 14.5539 11H7.10391L6.00391 13H17.0289C17.3122 13 17.5456 13.0957 17.7289 13.287C17.9122 13.479 18.0039 13.7167 18.0039 14C18.0039 14.2833 17.9079 14.5207 17.7159 14.712C17.5246 14.904 17.2872 15 17.0039 15H6.00391Z" fill="white"/>
</svg>
