<svg width="168" height="168" viewBox="0 0 168 168" fill="none" xmlns="http://www.w3.org/2000/svg">
<circle cx="80" cy="82" r="62" fill="#D9D9D9"/>
<path fill-rule="evenodd" clip-rule="evenodd" d="M51 124C38.8497 124 29 114.374 29 102.5C29 90.6259 38.8497 81 51 81C51.5167 81 52.0292 81.0174 52.537 81.0517C52.1842 79.0878 52 77.0654 52 75C52 56.2223 67.2223 41 86 41C100.991 41 113.716 50.702 118.239 64.1695C119.31 64.0575 120.398 64 121.5 64C138.345 64 152 77.4315 152 94C152 109.741 139.675 122.727 124 123.978V124H67.5078H51ZM62.996 124H56.0314H62.996Z" fill="white"/>
<path d="M62.996 124H56.0314M51 124C38.8497 124 29 114.374 29 102.5C29 90.6259 38.8497 81 51 81C51.5167 81 52.0292 81.0174 52.537 81.0517C52.1842 79.0878 52 77.0654 52 75C52 56.2223 67.2223 41 86 41C100.991 41 113.716 50.702 118.239 64.1695C119.31 64.0575 120.398 64 121.5 64C138.345 64 152 77.4315 152 94C152 109.741 139.675 122.727 124 123.978V124H67.5078H51Z" stroke="#00031A" stroke-width="2.5" stroke-linecap="round"/>
<path fill-rule="evenodd" clip-rule="evenodd" d="M75.6123 48.3426C75.6123 80.5657 104.633 107.118 142 110.703C137.317 116.461 130.086 120.368 121.847 120.981V121H54.7431C46.6013 121 33 117.57 33 102.548C33 87.527 43.5742 84.0967 54.7431 84.0967C55.218 84.0967 55.6891 84.1116 56.1559 84.141C55.8316 82.4556 55.7746 80.7184 55.6623 78.9474C54.9038 66.9842 60.1229 51.907 75.6304 47C75.618 47.4473 75.6123 47.8944 75.6123 48.3426ZM86.1163 98.7579C83.0776 98.7579 80.6142 101.192 80.6142 104.195C80.6142 107.198 83.0776 109.632 86.1163 109.632C89.155 109.632 91.6184 107.198 91.6184 104.195C91.6184 101.192 89.155 98.7579 86.1163 98.7579Z" fill="#C4C4C4"/>
<path d="M86.5 110C89.5376 110 92 107.538 92 104.5C92 101.462 89.5376 99 86.5 99C83.4624 99 81 101.462 81 104.5C81 107.538 83.4624 110 86.5 110Z" stroke="#00031A" stroke-width="2.5"/>
<path d="M71 92.9998L78 87.5066L71 82.2773" stroke="#00031A" stroke-width="2.5" stroke-linecap="round" stroke-linejoin="round"/>
<path d="M102 92.9998L95 87.5066L102 82.2773" stroke="#00031A" stroke-width="2.5" stroke-linecap="round" stroke-linejoin="round"/>
<path d="M96.0001 51C102.509 52.7226 107.648 57.8129 109.44 64.2932" stroke="#00031A" stroke-width="2.5" stroke-linecap="round"/>
<path d="M117 34C118.657 34 120 32.6569 120 31C120 29.3431 118.657 28 117 28C115.343 28 114 29.3431 114 31C114 32.6569 115.343 34 117 34Z" stroke="#00031A" stroke-width="2"/>
<path d="M148 50C149.657 50 151 48.6569 151 47C151 45.3431 149.657 44 148 44C146.343 44 145 45.3431 145 47C145 48.6569 146.343 50 148 50Z" fill="#00031A"/>
<path d="M124.758 41.7578L133.116 50.116M133.243 41.7578L124.885 50.116L133.243 41.7578Z" stroke="#00031A" stroke-width="2.5" stroke-linecap="round" stroke-linejoin="round"/>
<path d="M30.4043 59.5957L36.4043 65.5957M36.4043 59.5957L30.4043 65.5957L36.4043 59.5957Z" stroke="#00031A" stroke-width="2.5" stroke-linecap="round" stroke-linejoin="round"/>
<path d="M44 53C45.6569 53 47 51.6569 47 50C47 48.3431 45.6569 47 44 47C42.3431 47 41 48.3431 41 50C41 51.6569 42.3431 53 44 53Z" fill="#00031A"/>
</svg>
