<svg xmlns="http://www.w3.org/2000/svg" width="16" height="15" viewBox="0 0 16 15" fill="none">
    <path fill="#1C1B1F" d="m10.78 7.315-.644-.645c.12-.699-.077-1.307-.594-1.824-.518-.517-1.126-.715-1.824-.594l-.645-.645c.134-.054.275-.094.423-.12.148-.028.316-.041.504-.041.82 0 1.515.285 2.086.856.57.571.856 1.266.856 2.086 0 .188-.013.36-.04.513a1.76 1.76 0 0 1-.121.414Zm2.54 2.478-.605-.544c.51-.39.964-.816 1.361-1.28.396-.463.735-.99 1.017-1.581a7.925 7.925 0 0 0-2.892-3.235C10.945 2.354 9.545 1.955 8 1.955a7.759 7.759 0 0 0-2.257.322l-.625-.625A7.77 7.77 0 0 1 6.55 1.27c.484-.081.967-.121 1.451-.121 1.746 0 3.345.48 4.796 1.44 1.45.96 2.519 2.227 3.204 3.799a9.516 9.516 0 0 1-1.099 1.823 8.795 8.795 0 0 1-1.581 1.582Zm.907 4.373-3.144-3.143a6.8 6.8 0 0 1-1.32.423A7.947 7.947 0 0 1 8 11.627c-1.76 0-3.359-.48-4.796-1.441A8.761 8.761 0 0 1 0 6.388a8.345 8.345 0 0 1 1.24-2.006 8.914 8.914 0 0 1 1.642-1.56L.625.563 1.209 0l13.582 13.582-.564.584ZM3.446 3.386a9.535 9.535 0 0 0-1.41 1.31 6.646 6.646 0 0 0-1.13 1.692 7.922 7.922 0 0 0 2.892 3.234c1.256.8 2.657 1.2 4.202 1.2.47 0 .94-.045 1.41-.132.47-.087.827-.178 1.069-.272l-1.33-1.33c-.121.067-.296.124-.524.171-.229.047-.437.071-.625.071-.82 0-1.515-.286-2.085-.857-.571-.57-.857-1.266-.857-2.085 0-.175.024-.373.07-.595.048-.221.105-.406.172-.554L3.446 3.385Z"/>
</svg>